<svg xmlns="http://www.w3.org/2000/svg" viewBox="-1 -1 30 30"><path fill="#030303" fill-rule="evenodd" d="M.142 1.112A.55.55 0 0 1 .52.967h26.963c.145 0 .283.055.382.15a.44.44 0 0 1 .134.356l-.463 4.792a.47.47 0 0 1-.285.376l-8.76 3.922 7.968.247a.54.54 0 0 1 .372.158c.094.097.14.224.126.352l-1.562 14.429a.48.48 0 0 1-.379.404l-11.051 2.73a.6.6 0 0 1-.274 0l-11.11-2.73a.48.48 0 0 1-.38-.414l-.636-7.472a.44.44 0 0 1 .136-.352.55.55 0 0 1 .38-.149h5.613c.287 0 .519.209.519.466v3.454l5.61 1.32 5.253-1.324.6-5.252H1.79c-.271 0-.497-.189-.517-.432L.87 10.999a.46.46 0 0 1 .276-.445L9.302 6.69H.808c-.276 0-.503-.193-.518-.44L0 1.458a.44.44 0 0 1 .142-.346m.924.786.233 3.861h10.097c.239 0 .446.146.504.354s-.051.424-.262.524l-9.71 4.598.346 4.264h17.975c.147 0 .287.056.385.153a.44.44 0 0 1 .13.36l-.694 6.08a.48.48 0 0 1-.375.401l-5.728 1.443a.6.6 0 0 1-.272.002l-6.133-1.443c-.228-.053-.387-.238-.387-.45v-3.348H2.64l.566 6.644 10.62 2.611 10.57-2.612 1.474-13.617-9.458-.292c-.237-.007-.438-.158-.488-.366-.051-.209.062-.42.275-.516l10.328-4.624.389-4.027z" clip-rule="evenodd"/></svg>