<svg xmlns="http://www.w3.org/2000/svg" viewBox="-3 -2 25 30"><path fill="#030303" fill-rule="evenodd" d="M4.91 8.982c-1.43-.07-2.393-.613-2.989-1.347-.605-.745-.87-1.732-.81-2.736C1.236 2.866 2.65.976 4.9.976h9.058V.488v.488c2.586 0 4.183 1.966 4.337 3.968.076.994-.208 1.972-.887 2.71-.674.734-1.785 1.281-3.456 1.328zM.14 4.84C.284 2.455 1.986 0 4.9 0h9.057v.488V0c3.162 0 5.12 2.428 5.308 4.869.094 1.226-.255 2.482-1.141 3.446-.89.968-2.273 1.592-4.153 1.643H4.876c-1.68-.079-2.917-.73-3.71-1.706C.38 7.285.066 6.045.14 4.84" clip-rule="evenodd"/><path fill="#030303" fill-rule="evenodd" d="M9.088 9.47V.489h.974v8.983z" clip-rule="evenodd"/><path fill="#030303" fill-rule="evenodd" d="M4.549 8.982h5.513V19.04H4.366l-.046-.01C1.557 18.498.061 16.363.051 14.153c-.01-2.217 1.47-4.432 4.441-5.156zm.118.977c-2.517.636-3.65 2.459-3.642 4.188.008 1.738 1.163 3.458 3.435 3.915h4.628V9.96z" clip-rule="evenodd"/><path fill="#030303" fill-rule="evenodd" d="M.247 21.6c.5-1.527 1.776-2.939 4.044-3.522l.242.945c-1.954.503-2.967 1.68-3.36 2.882-.404 1.236-.156 2.491.401 3.17l.015.018.014.02c1.588 2.38 5.055 2.709 6.887-.002v-.002c.21-.307.38-.67.486-1.594.109-.944.147-2.429.112-4.958l.974-.013c.035 2.528-.001 4.07-.118 5.083-.12 1.033-.326 1.56-.649 2.033-2.254 3.334-6.55 2.894-8.488.016-.795-.983-1.045-2.59-.56-4.075m13.906-3.929a3.61 3.61 0 0 0 3.603-3.613 3.61 3.61 0 0 0-3.603-3.612 3.61 3.61 0 0 0-3.604 3.613 3.61 3.61 0 0 0 3.604 3.612m0 .976a4.583 4.583 0 0 0 4.577-4.588 4.583 4.583 0 0 0-4.577-4.59 4.583 4.583 0 0 0-4.578 4.59 4.583 4.583 0 0 0 4.578 4.588" clip-rule="evenodd"/></svg>