<svg xmlns="http://www.w3.org/2000/svg" fill="none" viewBox="0 0 30 30"><path stroke="#030303" stroke-linecap="round" stroke-linejoin="round" d="M11.051 25.005C3.871 27.003 3.871 21.676 1 21.01M21.103 29v-5.153a4.2 4.2 0 0 0-.272-1.873c-.232-.6-.6-1.146-1.078-1.603C24.262 19.905 29 18.321 29 11.05c0-1.86-.771-3.648-2.154-4.994a6.3 6.3 0 0 0-.13-5.02s-1.693-.466-5.613 1.97a20.67 20.67 0 0 0-10.052 0C7.131.57 5.437 1.037 5.437 1.037a6.3 6.3 0 0 0-.13 5.02c-1.392 1.356-2.164 3.16-2.153 5.033 0 7.218 4.738 8.803 9.247 9.322a4.46 4.46 0 0 0-1.07 1.584 4.2 4.2 0 0 0-.28 1.852V29"/></svg>