<svg xmlns="http://www.w3.org/2000/svg" fill="none" viewBox="-1 -1 30 30"><path fill="#030303" fill-rule="evenodd" d="M.136 1.113A.55.55 0 0 1 .515.967h26.97a.55.55 0 0 1 .378.145.42.42 0 0 1 .136.342l-.41 4.764c-.02.236-.243.42-.512.42H7.257l.332 3.855h19.079c.144 0 .281.054.379.147a.42.42 0 0 1 .134.345L25.78 25.74c-.018.189-.167.348-.375.399l-11.15 2.744a.6.6 0 0 1-.276 0L2.77 26.14c-.208-.051-.358-.212-.375-.403l-.642-7.403a.42.42 0 0 1 .135-.343.55.55 0 0 1 .378-.145H7.87c.285 0 .515.203.515.453v3.284l5.727 1.472 5.363-1.475.555-5.054H1.916c-.268 0-.49-.18-.513-.415L.002 1.458a.42.42 0 0 1 .134-.345m.939.76L2.389 15.62h18.208c.145 0 .283.054.38.149a.42.42 0 0 1 .132.348l-.642 5.85a.47.47 0 0 1-.36.39l-5.837 1.605a.6.6 0 0 1-.297.003L7.726 22.36c-.22-.057-.37-.234-.37-.436v-3.17H2.822l.572 6.598 10.722 2.625 10.668-2.625 1.324-13.95H7.111c-.269 0-.493-.183-.513-.42L6.19 6.218a.42.42 0 0 1 .135-.343.55.55 0 0 1 .378-.145h19.896l.331-3.856z" clip-rule="evenodd"/></svg>