<svg xmlns="http://www.w3.org/2000/svg" width="28" height="23" fill="none"><path fill="#030303" fill-rule="evenodd" d="M2.074 22.365h-.017c-.538.029-1.091-.11-1.502-.549A1.9 1.9 0 0 1 0 20.451c0-.428.146-.817.403-1.144.329-.45.824-.625 1.296-.655l.886-.057c.808-.064 1.323-.326 1.66-.708.35-.415.572-1.03.572-1.94V2.117c0-.52.123-1.08.54-1.494.415-.413.957-.566 1.501-.566.527 0 1.07.145 1.473.566.43.409.568.965.568 1.493v13.86c0 1.189-.21 2.266-.66 3.207l-.002.004-.002.003a5.06 5.06 0 0 1-2.07 2.2c-.887.52-1.942.804-3.132.888zm.89-.938q1.645-.114 2.77-.775a4.2 4.2 0 0 0 1.73-1.836q.577-1.205.577-2.84V2.115q0-.602-.318-.889Q7.435.91 6.858.91t-.894.316q-.288.287-.289.89v13.83q0 1.578-.778 2.496-.78.89-2.25 1.004l-.894.058q-.463.028-.664.315a1 1 0 0 0-.23.631q0 .46.317.775.287.315.836.287zm11.29.078-.004-.001a9.5 9.5 0 0 1-2.186-1.199l-.002-.001-.002-.002a2.36 2.36 0 0 1-.757-.903l-.018-.041-.014-.043a2.16 2.16 0 0 1-.088-1.082l.005-.028.006-.027a2.2 2.2 0 0 1 .476-.929l.019-.021.02-.02a1.73 1.73 0 0 1 1.077-.505c.455-.041.871.11 1.22.324l.024.015.024.016a8.4 8.4 0 0 0 2.506 1.223c.891.243 1.916.37 3.082.37 1.655 0 2.706-.307 3.313-.77.637-.49.934-1.093.934-1.877 0-.63-.21-1.038-.593-1.336l-.012-.009-.011-.01c-.428-.356-1.263-.714-2.647-.993m0 0-3.004-.603-.005-.001c-1.893-.401-3.42-1.073-4.482-2.084l-.006-.006-.007-.007c-1.072-1.067-1.578-2.465-1.578-4.104 0-1.016.207-1.96.636-2.817a6.3 6.3 0 0 1 1.76-2.18c.745-.61 1.622-1.068 2.614-1.383 1-.318 2.09-.471 3.261-.471 1.29 0 2.505.183 3.637.557a9.5 9.5 0 0 1 3.128 1.637l.005.004.004.004c.318.259.565.586.7.982.132.368.15.755.046 1.137l-.003.01-.003.01a1.9 1.9 0 0 1-.554.868c-.303.29-.681.424-1.059.455-.476.042-.908-.137-1.26-.362l-.026-.016-.024-.019c-.698-.52-1.407-.883-2.128-1.1l-.009-.002-.008-.003c-.73-.236-1.552-.36-2.475-.36-.933 0-1.7.14-2.324.394-.593.25-1.036.602-1.358 1.052-.293.417-.45.91-.45 1.517 0 .73.214 1.217.57 1.561.406.374 1.152.722 2.37.958h.007l3.004.633h.002c2.005.415 3.603 1.068 4.687 2.03C27.448 12.935 28 14.283 28 15.89c0 .962-.199 1.866-.606 2.698a6.1 6.1 0 0 1-1.738 2.131l-.006.005-.006.005c-.75.571-1.638.997-2.646 1.29-1.015.294-2.137.435-3.356.435q-1.429 0-2.804-.243a14 14 0 0 1-2.58-.703l-.004-.002m11.474-8.915q-1.384-1.234-4.298-1.837l-3-.631q-1.932-.373-2.797-1.177-.837-.803-.837-2.18 0-1.148.606-2.009.635-.89 1.73-1.348 1.125-.46 2.654-.46 1.5 0 2.74.402 1.24.373 2.395 1.234.404.258.72.23.346-.03.549-.23a1.03 1.03 0 0 0 .317-.488q.087-.315-.029-.63a1.3 1.3 0 0 0-.433-.604A8.7 8.7 0 0 0 23.19 1.37Q21.633.854 19.815.854q-1.644 0-3 .43-1.355.431-2.336 1.234a5.4 5.4 0 0 0-1.529 1.894q-.548 1.09-.548 2.439 0 2.18 1.327 3.5 1.356 1.292 4.067 1.865l3 .603q2.134.431 3.029 1.176.922.718.922 2.009 0 1.578-1.269 2.554-1.24.946-3.836.947-1.845 0-3.317-.402a9.3 9.3 0 0 1-2.769-1.349q-.374-.23-.692-.2a.87.87 0 0 0-.548.258q-.202.23-.289.573-.057.315.058.66.145.316.49.574.895.66 1.99 1.09 1.125.432 2.423.66 1.298.23 2.654.23 1.73 0 3.115-.401 1.385-.402 2.365-1.148a5.3 5.3 0 0 0 1.5-1.837q.52-1.06.52-2.324 0-2.094-1.414-3.3" clip-rule="evenodd"/></svg>