<svg xmlns="http://www.w3.org/2000/svg" width="36" height="20" fill="none"><path fill="#030303" fill-rule="evenodd" d="m.446 19.456-.012-.013C.112 19.073 0 18.6 0 18.136V1.839C0 1.374.112.902.434.53.747.171 1.161 0 1.61 0c.304 0 .686.05.992.299.232.164.43.406.6.653l8.767 12.232V1.788c0-.45.113-.914.445-1.27C12.75.14 13.201 0 13.65 0c.438 0 .882.144 1.201.532.322.354.433.812.433 1.256V18.16c0 .44-.1.885-.382 1.249-.303.393-.733.539-1.154.539-.334 0-.687-.07-.991-.282a2.9 2.9 0 0 1-.638-.657l-.003-.003L3.34 6.737v11.399c0 .464-.112.936-.434 1.307l-.012.013-.012.013c-.334.35-.769.48-1.2.48-.435 0-.883-.122-1.225-.48zm2.167-15.01 10.083 14.1q.245.333.465.486.22.154.587.154.392 0 .588-.256.22-.282.22-.769V1.788q0-.487-.245-.744-.22-.28-.66-.281-.465 0-.71.281-.245.256-.245.744V15.47L2.613 1.403q-.245-.358-.44-.487Q2 .763 1.608.763a.8.8 0 0 0-.636.281q-.245.282-.245.795v16.297q0 .512.245.794.245.255.71.256.44 0 .685-.256.245-.282.245-.794zm14.84 15.475-.014.001c-.457.025-.927-.1-1.275-.49a1.75 1.75 0 0 1-.47-1.22c0-.382.123-.73.341-1.022.28-.401.699-.558 1.1-.584l.752-.051c.685-.057 1.122-.292 1.408-.633.297-.37.485-.92.485-1.732V1.838c0-.464.105-.963.458-1.334C20.59.137 21.05 0 21.512 0c.447 0 .908.129 1.25.505.365.365.482.862.482 1.334v12.376c0 1.062-.178 2.024-.56 2.865l-.002.003-.001.003a4.44 4.44 0 0 1-1.757 1.965c-.753.464-1.648.718-2.657.793zm.755-.837q1.395-.104 2.35-.692a3.7 3.7 0 0 0 1.468-1.64q.49-1.077.49-2.537V1.84q0-.538-.27-.795-.244-.28-.734-.281-.49 0-.759.281-.244.256-.244.795v12.35q0 1.41-.661 2.23-.66.794-1.909.897l-.759.05q-.39.027-.563.283a.9.9 0 0 0-.195.563q0 .41.269.692.245.282.71.256zm9.918.613h-.002a6.7 6.7 0 0 1-2.298-1.088l-.001-.001-.002-.001a1.75 1.75 0 0 1-.59-.725l-.006-.014-.005-.013a1.84 1.84 0 0 1-.121-.854l.003-.033.007-.033c.054-.285.17-.553.357-.782l.018-.022.02-.02c.212-.223.481-.377.795-.42.354-.066.689.024.975.174l.03.015.026.017c.587.378 1.132.635 1.638.783q.819.207 1.603.206c.86 0 1.382-.17 1.677-.393.283-.214.409-.47.409-.843 0-.285-.082-.435-.206-.544l-.008-.007-.008-.008c-.175-.163-.522-.348-1.14-.49l-2.222-.511c-1.109-.24-2.03-.674-2.672-1.368l-.004-.005-.004-.005c-.637-.71-.931-1.617-.931-2.648 0-.905.223-1.724.7-2.418v-.002l.002-.002c.48-.691 1.14-1.208 1.947-1.561.808-.354 1.723-.52 2.729-.52q1.172-.002 2.235.337 1.101.319 1.993 1.043c.254.19.46.45.567.782.12.31.13.634.046.945a1.6 1.6 0 0 1-.41.757l-.02.02-.021.02c-.238.213-.52.327-.818.359-.368.038-.701-.086-.977-.27l-.007-.004-.006-.004a4.6 4.6 0 0 0-1.292-.646l-.01-.003-.01-.003a4 4 0 0 0-1.27-.22c-.835 0-1.346.175-1.64.409a1.03 1.03 0 0 0-.422.879c0 .298.085.49.227.639.155.161.457.338 1.006.46l2.228.486h.002c1.128.255 2.063.682 2.72 1.343.71.68 1.037 1.598 1.037 2.658 0 1.369-.542 2.494-1.594 3.304-1.026.79-2.343 1.148-3.882 1.148a9.8 9.8 0 0 1-2.397-.303zm6.338-6.25q-.783-.794-2.374-1.154l-2.227-.486q-.93-.206-1.37-.667-.441-.46-.441-1.178 0-.922.71-1.487.71-.563 2.08-.563.735 0 1.493.256a5.3 5.3 0 0 1 1.493.743q.269.179.514.154a.7.7 0 0 0 .416-.18.84.84 0 0 0 .22-.41.7.7 0 0 0-.025-.486.8.8 0 0 0-.318-.436 4.9 4.9 0 0 0-1.762-.923 6.6 6.6 0 0 0-2.031-.307q-1.395 0-2.447.461t-1.64 1.307q-.563.82-.563 1.973 0 1.306.734 2.127.76.82 2.3 1.153l2.228.512q1.003.23 1.468.667.465.41.465 1.127 0 .923-.71 1.46-.71.54-2.104.539a7.2 7.2 0 0 1-1.787-.23q-.881-.258-1.835-.872-.294-.154-.539-.103a.63.63 0 0 0-.391.205.96.96 0 0 0-.196.436q-.025.23.073.487.099.23.343.41a6 6 0 0 0 2.056.974q1.125.28 2.227.281 2.153 0 3.45-.999 1.298-1 1.298-2.69 0-1.334-.808-2.102" clip-rule="evenodd"/></svg>