<svg xmlns="http://www.w3.org/2000/svg" viewBox="1.3 3 21 19"><path fill="none" stroke="#030303" stroke-width=".5" d="M11.74 1.88c-.11.016-.263.056-.34.089-.34.144-7.792 4.487-7.932 4.623a2 2 0 0 0-.3.446l-.148.298v9.328l.151.306q.151.306.34.472c.227.2 2.195 1.335 2.628 1.515.463.193.865.283 1.257.282 1.182-.002 1.944-.572 2.18-1.627.057-.255.064-.802.064-4.782 0-3.442-.011-4.505-.048-4.542-.067-.067-1.197-.067-1.264 0-.037.037-.048 1.062-.048 4.373 0 4.753.009 4.565-.243 4.87-.203.245-.402.329-.777.325-.429-.004-.548-.055-1.82-.787l-1.06-.609V7.542l3.76-2.169c2.225-1.285 3.801-2.17 3.86-2.17s1.631.883 3.86 2.17l3.76 2.17v8.916l-1.04.601c-3.052 1.765-6.488 3.739-6.544 3.76-.04.015-.432-.199-1.06-.578-.548-.331-1.037-.601-1.086-.602-.05 0-.239.079-.42.177a6 6 0 0 1-.64.285c-.318.111-.362.16-.24.266.039.034.682.423 1.43.865 1.487.879 1.671.958 2.107.913a2 2 0 0 0 .42-.1c.325-.127 7.739-4.426 7.942-4.604q.189-.167.34-.472l.151-.306V7.336l-.148-.298a2 2 0 0 0-.3-.446c-.163-.159-7.66-4.515-7.972-4.633a1.8 1.8 0 0 0-.82-.079m1.526 6.164c-1.373.145-2.311.788-2.59 1.776-.079.282-.069.942.019 1.229.206.673.77 1.122 1.718 1.371.481.126.704.163 1.567.26 1.65.186 2.308.386 2.485.756.08.168.059.603-.038.79-.15.291-.438.477-.939.605-.393.1-2.064.098-2.468-.004-.756-.19-1.052-.464-1.218-1.129-.045-.179-.109-.339-.148-.368-.048-.034-.239-.05-.615-.05-.642 0-.679.019-.678.343.002.531.247 1.165.599 1.55.476.52 1.131.823 2.143.992.503.084 1.904.072 2.397-.02.506-.095.986-.257 1.328-.448.322-.18.751-.6.903-.884.326-.609.352-1.501.062-2.119-.122-.26-.444-.568-.774-.74-.535-.279-1.091-.413-2.639-.634-1.44-.205-1.972-.343-2.153-.559-.128-.153-.162-.356-.104-.634a.64.64 0 0 1 .212-.391c.305-.303.771-.415 1.731-.416 1.359 0 1.918.283 2.178 1.105.129.407.144.415.78.415.757 0 .774-.026.571-.834-.236-.941-.901-1.56-1.955-1.822-.661-.165-1.61-.221-2.374-.14"/></svg>