<svg xmlns="http://www.w3.org/2000/svg" viewBox="0 0 37 37"><path fill-rule="evenodd" d="M30.35.686c-.817.136-1.705.537-2.155.973-.559.543-1.11 1.471-1.24 2.09-.119.57-.087 1.787.06 2.272.357 1.174 1.087 2.019 2.184 2.525.684.317 1.264.417 2.189.38.646-.027 1.931-.234 2.029-.329.021-.019-1.24-1.366-2.598-2.774l-.361-.374 1.437-1.445c1.624-1.633 2.022-2.114 2.022-2.446 0-.58-1.01-.949-2.559-.934a9 9 0 0 0-1.008.062m2.41.86c.128.043.232.105.232.139 0 .033-.823.887-1.829 1.899l-1.829 1.838.919.963c1.061 1.113 1.567 1.667 1.567 1.719 0 .063-1.213.039-1.554-.031a4.6 4.6 0 0 1-.82-.304c-1.287-.616-1.976-2.001-1.762-3.541.08-.578.315-1.096.726-1.604.509-.63.974-.903 1.899-1.116.456-.104 2.107-.079 2.451.038m.552 1.749c-.99 1.036-1.8 1.904-1.8 1.93 0 .089 1.417 1.897 1.891 2.414.512.556.767.747 1.002.747.555.001 1.305-.972 1.687-2.189.229-.729.314-1.365.274-2.052-.056-.969-.358-1.703-1.004-2.445l-.25-.288zm1.948-.378c.586 1.172.339 3.087-.56 4.344-.103.144-.222.262-.264.262-.135 0-1.876-2.076-1.876-2.237 0-.063 2.465-2.634 2.525-2.634.024 0 .103.119.175.265M23.292 6.871c-1.457.516-2.684 1.555-10.352 8.764l-.412.387 1.234 1.146c.678.631 1.253 1.147 1.276 1.147.055 0 11.388-10.616 11.422-10.699.037-.088-.58-.489-1.053-.687-.332-.138-.513-.171-1.049-.187-.558-.017-.705.001-1.066.129m1.728.747c.121.05.209.102.196.113l-5.103 4.777-5.079 4.756-.665-.622-.666-.622 2.323-2.167 3.514-3.277c1.247-1.163 2.503-2.157 3.316-2.622.822-.47 1.566-.586 2.164-.336m1.959 1.159c-.404.133-.524.216-.482.335.03.085.021.092-.042.034-.063-.059-1.103.942-5.112 4.921-2.768 2.748-5.032 5.017-5.032 5.044 0 .07 1.704 1.617 1.758 1.596.025-.01 2.417-2.105 5.316-4.656 5.117-4.502 5.276-4.649 5.438-5.01.415-.924.3-1.69-.32-2.125-.226-.159-.32-.184-.767-.201-.309-.011-.608.013-.757.062m1.185.881c.147.202.155.481.023.856-.07.2-.149.382-.174.406l-5.005 4.401-4.958 4.359-.3-.296-.301-.296 4.673-4.676c2.57-2.572 4.751-4.718 4.846-4.769.402-.213 1.035-.205 1.196.015m-3.189 6.655c-3.103 2.76-5.643 5.043-5.643 5.074 0 .076 2.003 2.258 2.094 2.28.092.022 4.437-4.358 5.432-5.475 1.476-1.659 2.403-3.051 3.04-4.564.27-.642.824-2.346.76-2.338-.022.002-2.58 2.263-5.683 5.023m3.67-1.898c-.389.713-1.119 1.758-1.782 2.552-.696.832-2.655 2.872-4.355 4.533l-1.079 1.055-.48-.532c-.265-.293-.474-.56-.466-.594.018-.075 8.264-7.421 8.336-7.427.029-.002-.05.184-.174.413m-18.287 4.123c-1.033 1.037-1.823 1.87-1.755 1.85.067-.019 1.468-.343 3.113-.719 1.644-.377 3.002-.697 3.017-.712s.002-.05-.03-.077a688 688 0 0 1-2.279-2.055l-.186-.172zm2.345-.389c.211.196.374.367.362.378-.026.024-1.926.466-2.003.466-.029 0 .224-.277.562-.617s.633-.61.654-.601.213.177.425.374m-.178 2.33c-.59.609-1.062 1.115-1.048 1.125.025.02 4.03-.302 4.218-.338.08-.016-.198-.29-.974-.962-.597-.517-1.094-.939-1.104-.936s-.502.502-1.092 1.111m1.274.106c.015.045-.041.073-.142.073-.143 0-.156-.013-.089-.094.086-.104.193-.094.231.021m-.109 1.316-2.066.367-4.236 4.267c-2.33 2.347-4.231 4.288-4.224 4.314.016.061 3.83 3.736 3.855 3.714.01-.009-.128-.754-.307-1.654-.179-.901-.313-1.648-.297-1.662.016-.013 2.631-1.752 5.81-3.864 3.18-2.113 5.782-3.862 5.782-3.888 0-.027-.446-.481-.992-1.011-.694-.674-1.031-.96-1.125-.956-.074.003-1.064.171-2.2.373m2.585.982c.299.283.495.514.463.543-.032.028-2.572 1.721-5.645 3.762l-5.588 3.71.117.569c.064.313.107.61.095.661-.013.061-.264-.146-.72-.593-.651-.639-.693-.694-.612-.809.047-.068 1.781-1.831 3.853-3.917l3.767-3.795 1.721-.309c.947-.17 1.791-.31 1.876-.312.11-.002.302.138.673.49M1.576 32.901c-.8.773-1.443 1.416-1.429 1.43.029.029 5.476.385 5.91.386l.292.001-1.032-1.002-1.659-1.61-.627-.609zm2.078.322.6.602-1.113-.071c-.613-.039-1.126-.083-1.14-.098-.026-.025.979-1.034 1.03-1.034.013 0 .294.27.623.601"/></svg>