<svg xmlns="http://www.w3.org/2000/svg" width="37" height="35" fill="none"><path stroke="#030303" stroke-width=".8" d="M13.955 18.734 12.25 17.19l-2.5 2.507zm-.305 1.156-1.209 1.24 2.42-.194zm3.784 3.539-1.566-1.516-4.068.717-8.108 8.182 2.721 2.617-.467-2.37zM5.343 34.265l-2.31-2.232L1 33.989zm14.502-12.87 10.06-8.926c-1.205 3.858-4.188 6.356-8.466 10.661zm6.811-12.057-9.812 9.753 1.209 1.102 10.279-9.036c1.017-1.819-.33-2.54-1.677-1.819Zm-6.203-.165-7.338 6.832 1.923 1.79L25.895 7.63c-1.776-1.21-3.069-.344-5.442 1.543Zm9.428-3.76s3.436-3.279 3.655-3.802c.22-.523-3.447-1.213-5.112.358-.98 1.11-1.313 1.844-1.126 3.554.384 1.873 2.05 3.615 5.387 2.838z"/><path stroke="#030303" stroke-width=".8" d="M32 5.248 35.102 2c1.973 2.058.21 5.782-.68 5.998-.27.065-1.651-1.716-2.422-2.75Z"/></svg>