<svg xmlns="http://www.w3.org/2000/svg" width="28" height="28" fill="none"><path fill="#030303" fill-rule="evenodd" d="M12.201 23.276c2.068-1.485 4.33-3.926 6.263-6.982s3.129-6.09 3.525-8.503c.198-1.21.189-2.223.001-2.993-.187-.767-.532-1.222-.95-1.454-.419-.232-1.01-.297-1.817-.083-.81.215-1.763.694-2.799 1.438-2.068 1.484-4.33 3.925-6.262 6.982-1.932 3.056-3.13 6.09-3.525 8.503-.199 1.209-.19 2.223-.002 2.992.188.767.532 1.222.95 1.455.42.232 1.01.297 1.817.083.81-.215 1.764-.694 2.8-1.438m-5.026 2.003c2.675 1.487 8.04-2.364 11.98-8.6 3.943-6.237 4.97-12.498 2.295-13.984S13.412 5.06 9.47 11.296 4.5 23.793 7.175 25.28" clip-rule="evenodd"/><path fill="#030303" fill-rule="evenodd" d="M21.853 20.255c-.375-2.417-1.547-5.459-3.452-8.53s-4.147-5.53-6.202-7.03c-1.03-.75-1.979-1.237-2.787-1.458-.805-.22-1.397-.16-1.817.07-.42.229-.769.68-.963 1.446-.194.768-.212 1.782-.024 2.992.375 2.417 1.546 5.459 3.452 8.53s4.147 5.529 6.202 7.03c1.03.75 1.978 1.237 2.786 1.458.806.22 1.397.16 1.818-.07.42-.229.768-.68.962-1.446.195-.768.213-1.782.025-2.992m-.583 5.09c2.688-1.465 1.715-7.733-2.174-14C15.208 5.08 9.878 1.189 7.19 2.656c-2.687 1.465-1.714 7.733 2.174 14 3.888 6.265 9.219 10.157 11.906 8.69" clip-rule="evenodd"/><path fill="#030303" fill-rule="evenodd" d="M23.6 10.962C21.182 10.05 17.79 9.47 14 9.47s-7.183.58-9.6 1.492c-1.21.456-2.135.98-2.745 1.524-.609.542-.85 1.052-.85 1.508s.241.966.85 1.508c.61.544 1.535 1.068 2.746 1.525 2.416.91 5.81 1.491 9.599 1.491s7.183-.58 9.6-1.491c1.21-.457 2.135-.981 2.745-1.525.609-.542.85-1.052.85-1.508s-.241-.966-.85-1.508c-.61-.543-1.535-1.068-2.746-1.524m4.4 3.032c0-2.915-6.268-5.278-14-5.278S0 11.079 0 13.994s6.268 5.279 14 5.279 14-2.364 14-5.279" clip-rule="evenodd"/><path fill="#030303" fill-rule="evenodd" d="M14.28 15.463c.876 0 1.586-.666 1.586-1.488s-.71-1.487-1.586-1.487-1.587.665-1.587 1.487.71 1.488 1.587 1.488m0 .754c1.32 0 2.391-1.004 2.391-2.242s-1.07-2.242-2.391-2.242-2.391 1.004-2.391 2.242 1.07 2.242 2.39 2.242" clip-rule="evenodd"/></svg>