<svg width="100" height="100" style="display: none">

<symbol id="burger" xmlns="http://www.w3.org/2000/svg" width="29" height="20" fill="none"><path stroke="null" stroke-linecap="round" stroke-linejoin="round" stroke-width="2" d="M22 7H1m27-6H1m27 12H1m21 6H1"/></symbol>
<symbol id="circle" xmlns="http://www.w3.org/2000/svg" width="4" height="5" fill="none"><circle cx="2" cy="2.462" r="2" fill="#030303"/></symbol>
<symbol id="css" xmlns="http://www.w3.org/2000/svg" width="28" height="29" fill="none"><path fill="#030303" fill-rule="evenodd" d="M.142 1.112A.55.55 0 0 1 .52.967h26.963c.145 0 .283.055.382.15a.44.44 0 0 1 .134.356l-.463 4.792a.47.47 0 0 1-.285.376l-8.76 3.922 7.968.247a.54.54 0 0 1 .372.158c.094.097.14.224.126.352l-1.562 14.429a.48.48 0 0 1-.379.404l-11.051 2.73a.6.6 0 0 1-.274 0l-11.11-2.73a.48.48 0 0 1-.38-.414l-.636-7.472a.44.44 0 0 1 .136-.352.55.55 0 0 1 .38-.149h5.613c.287 0 .519.209.519.466v3.454l5.61 1.32 5.253-1.324.6-5.252H1.79c-.271 0-.497-.189-.517-.432L.87 10.999a.46.46 0 0 1 .276-.445L9.302 6.69H.808c-.276 0-.503-.193-.518-.44L0 1.458a.44.44 0 0 1 .142-.346m.924.786.233 3.861h10.097c.239 0 .446.146.504.354s-.051.424-.262.524l-9.71 4.598.346 4.264h17.975c.147 0 .287.056.385.153a.44.44 0 0 1 .13.36l-.694 6.08a.48.48 0 0 1-.375.401l-5.728 1.443a.6.6 0 0 1-.272.002l-6.133-1.443c-.228-.053-.387-.238-.387-.45v-3.348H2.64l.566 6.644 10.62 2.611 10.57-2.612 1.474-13.617-9.458-.292c-.237-.007-.438-.158-.488-.366-.051-.209.062-.42.275-.516l10.328-4.624.389-4.027z" clip-rule="evenodd"/></symbol>
<symbol id="dev-symbol" xmlns="http://www.w3.org/2000/svg"  fill="none" viewBox="0 0 86 68"><path fill="#878382" fill-opacity=".5" d="M46.482 5.865a3.826 3.826 0 0 0-4.299 3.323L35.95 57.394c-.268 2.102 1.274 3.758 3.322 4.298 2.098.561 4.117-.389 4.299-3.322l6.234-48.206c.27-2.088-1.217-4.017-3.322-4.299Zm31.767 17.713L57.017 15.12a3.84 3.84 0 0 0-4.99 2.148 3.84 3.84 0 0 0 2.147 4.99l15.698 6.257-12.185 11.71c-1.531 1.47-1.434 3.779-.11 5.431 1.347 1.68 3.439 1.579 5.433.11l16.478-15.848a3.82 3.82 0 0 0 1.104-3.5 3.86 3.86 0 0 0-2.343-2.84M31.6 45.326l-15.7-6.257L28.087 27.36a3.84 3.84 0 0 0 .109-5.432 3.84 3.84 0 0 0-5.432-.11L6.282 37.653a3.83 3.83 0 0 0-1.118 3.502 3.84 3.84 0 0 0 2.34 2.826l21.235 8.472c3.304.973 4.366-.453 4.99-2.147.754-1.982-.174-4.205-2.13-4.98Z"/></symbol>
<symbol id="ellipse-three" xmlns="http://www.w3.org/2000/svg" width="474" height="474"><defs><filter  width="474" height="474" x="0" y="0" color-interpolation-filters="sRGB" filterUnits="userSpaceOnUse"><feFlood flood-opacity="0" result="BackgroundImageFix"/><feBlend in="SourceGraphic" in2="BackgroundImageFix" result="shape"/><feGaussianBlur result="effect_layerBlur_1" stdDeviation="50"/></filter></defs><g filter="url(#a)"><circle cx="237" cy="237" r="87"/></g></symbol>
<symbol id="email" xmlns="http://www.w3.org/2000/svg" width="29" height="22" fill="none"><path stroke="#E6EAE9" stroke-linecap="round" stroke-linejoin="round" stroke-width=".876" d="M3.697 1h21.579c1.483 0 2.697 1.146 2.697 2.546v15.273c0 1.4-1.214 2.546-2.697 2.546H3.697C2.214 21.365 1 20.22 1 18.819V3.546C1 2.146 2.214 1 3.697 1"/><path stroke="#E6EAE9" stroke-linecap="round" stroke-linejoin="round" stroke-width=".876" d="m27.973 3.444-13.486 8.96L1 3.445"/></symbol>
<symbol id="figma" xmlns="http://www.w3.org/2000/svg" width="20" height="28" fill="none"><path fill="#030303" fill-rule="evenodd" d="M4.91 8.982c-1.43-.07-2.393-.613-2.989-1.347-.605-.745-.87-1.732-.81-2.736C1.236 2.866 2.65.976 4.9.976h9.058V.488v.488c2.586 0 4.183 1.966 4.337 3.968.076.994-.208 1.972-.887 2.71-.674.734-1.785 1.281-3.456 1.328zM.14 4.84C.284 2.455 1.986 0 4.9 0h9.057v.488V0c3.162 0 5.12 2.428 5.308 4.869.094 1.226-.255 2.482-1.141 3.446-.89.968-2.273 1.592-4.153 1.643H4.876c-1.68-.079-2.917-.73-3.71-1.706C.38 7.285.066 6.045.14 4.84" clip-rule="evenodd"/><path fill="#030303" fill-rule="evenodd" d="M9.088 9.47V.489h.974v8.983z" clip-rule="evenodd"/><path fill="#030303" fill-rule="evenodd" d="M4.549 8.982h5.513V19.04H4.366l-.046-.01C1.557 18.498.061 16.363.051 14.153c-.01-2.217 1.47-4.432 4.441-5.156zm.118.977c-2.517.636-3.65 2.459-3.642 4.188.008 1.738 1.163 3.458 3.435 3.915h4.628V9.96z" clip-rule="evenodd"/><path fill="#030303" fill-rule="evenodd" d="M.247 21.6c.5-1.527 1.776-2.939 4.044-3.522l.242.945c-1.954.503-2.967 1.68-3.36 2.882-.404 1.236-.156 2.491.401 3.17l.015.018.014.02c1.588 2.38 5.055 2.709 6.887-.002v-.002c.21-.307.38-.67.486-1.594.109-.944.147-2.429.112-4.958l.974-.013c.035 2.528-.001 4.07-.118 5.083-.12 1.033-.326 1.56-.649 2.033-2.254 3.334-6.55 2.894-8.488.016-.795-.983-1.045-2.59-.56-4.075m13.906-3.929a3.61 3.61 0 0 0 3.603-3.613 3.61 3.61 0 0 0-3.603-3.612 3.61 3.61 0 0 0-3.604 3.613 3.61 3.61 0 0 0 3.604 3.612m0 .976a4.583 4.583 0 0 0 4.577-4.588 4.583 4.583 0 0 0-4.577-4.59 4.583 4.583 0 0 0-4.578 4.59 4.583 4.583 0 0 0 4.578 4.588" clip-rule="evenodd"/></symbol>
<symbol id="git" viewBox="0 0 30 30" fill="none" xmlns="http://www.w3.org/2000/svg">
  <path d="M11.0513 25.0051C3.8718 27.0025 3.87179 21.676 1 21.0102M21.1026 29V23.8466C21.1564 23.2116 21.0639 22.5733 20.8312 21.974C20.5985 21.3748 20.2309 20.8283 19.7528 20.371C24.2615 19.9049 29 18.3203 29 11.0496C28.9996 9.19038 28.2285 7.40249 26.8462 6.05594C27.5007 4.42936 27.4544 2.63144 26.7169 1.03568C26.7169 1.03568 25.0226 0.569607 21.1026 3.0065C17.8115 2.17932 14.3423 2.17932 11.0513 3.0065C7.13128 0.569607 5.43692 1.03568 5.43692 1.03568C4.69941 2.63144 4.65313 4.42936 5.30769 6.05594C3.91505 7.41248 3.14311 9.21653 3.15385 11.0895C3.15385 18.307 7.89231 19.8916 12.401 20.411C11.9286 20.8637 11.5643 21.4036 11.3317 21.9955C11.0992 22.5874 11.0036 23.2181 11.0513 23.8466V29" stroke="#030303" stroke-linecap="round" stroke-linejoin="round" />
</symbol>
<symbol id="html" xmlns="http://www.w3.org/2000/svg" width="28" height="29" fill="none"><path fill="#030303" fill-rule="evenodd" d="M.136 1.113A.55.55 0 0 1 .515.967h26.97a.55.55 0 0 1 .378.145.42.42 0 0 1 .136.342l-.41 4.764c-.02.236-.243.42-.512.42H7.257l.332 3.855h19.079c.144 0 .281.054.379.147a.42.42 0 0 1 .134.345L25.78 25.74c-.018.189-.167.348-.375.399l-11.15 2.744a.6.6 0 0 1-.276 0L2.77 26.14c-.208-.051-.358-.212-.375-.403l-.642-7.403a.42.42 0 0 1 .135-.343.55.55 0 0 1 .378-.145H7.87c.285 0 .515.203.515.453v3.284l5.727 1.472 5.363-1.475.555-5.054H1.916c-.268 0-.49-.18-.513-.415L.002 1.458a.42.42 0 0 1 .134-.345m.939.76L2.389 15.62h18.208c.145 0 .283.054.38.149a.42.42 0 0 1 .132.348l-.642 5.85a.47.47 0 0 1-.36.39l-5.837 1.605a.6.6 0 0 1-.297.003L7.726 22.36c-.22-.057-.37-.234-.37-.436v-3.17H2.822l.572 6.598 10.722 2.625 10.668-2.625 1.324-13.95H7.111c-.269 0-.493-.183-.513-.42L6.19 6.218a.42.42 0 0 1 .135-.343.55.55 0 0 1 .378-.145h19.896l.331-3.856z" clip-rule="evenodd"/></symbol>
<symbol id="icon-close" xmlns="http://www.w3.org/2000/svg" fill="none" viewBox="0 0 29 29"><path stroke="#fff" stroke-linecap="round" stroke-linejoin="round" stroke-width="2" d="M28 1 1 28M1 1l27 27"/></symbol>
<symbol id="js" xmlns="http://www.w3.org/2000/svg" width="28" height="23" fill="none"><path fill="#030303" fill-rule="evenodd" d="M2.074 22.365h-.017c-.538.029-1.091-.11-1.502-.549A1.9 1.9 0 0 1 0 20.451c0-.428.146-.817.403-1.144.329-.45.824-.625 1.296-.655l.886-.057c.808-.064 1.323-.326 1.66-.708.35-.415.572-1.03.572-1.94V2.117c0-.52.123-1.08.54-1.494.415-.413.957-.566 1.501-.566.527 0 1.07.145 1.473.566.43.409.568.965.568 1.493v13.86c0 1.189-.21 2.266-.66 3.207l-.002.004-.002.003a5.06 5.06 0 0 1-2.07 2.2c-.887.52-1.942.804-3.132.888zm.89-.938q1.645-.114 2.77-.775a4.2 4.2 0 0 0 1.73-1.836q.577-1.205.577-2.84V2.115q0-.602-.318-.889Q7.435.91 6.858.91t-.894.316q-.288.287-.289.89v13.83q0 1.578-.778 2.496-.78.89-2.25 1.004l-.894.058q-.463.028-.664.315a1 1 0 0 0-.23.631q0 .46.317.775.287.315.836.287zm11.29.078-.004-.001a9.5 9.5 0 0 1-2.186-1.199l-.002-.001-.002-.002a2.36 2.36 0 0 1-.757-.903l-.018-.041-.014-.043a2.16 2.16 0 0 1-.088-1.082l.005-.028.006-.027a2.2 2.2 0 0 1 .476-.929l.019-.021.02-.02a1.73 1.73 0 0 1 1.077-.505c.455-.041.871.11 1.22.324l.024.015.024.016a8.4 8.4 0 0 0 2.506 1.223c.891.243 1.916.37 3.082.37 1.655 0 2.706-.307 3.313-.77.637-.49.934-1.093.934-1.877 0-.63-.21-1.038-.593-1.336l-.012-.009-.011-.01c-.428-.356-1.263-.714-2.647-.993m0 0-3.004-.603-.005-.001c-1.893-.401-3.42-1.073-4.482-2.084l-.006-.006-.007-.007c-1.072-1.067-1.578-2.465-1.578-4.104 0-1.016.207-1.96.636-2.817a6.3 6.3 0 0 1 1.76-2.18c.745-.61 1.622-1.068 2.614-1.383 1-.318 2.09-.471 3.261-.471 1.29 0 2.505.183 3.637.557a9.5 9.5 0 0 1 3.128 1.637l.005.004.004.004c.318.259.565.586.7.982.132.368.15.755.046 1.137l-.003.01-.003.01a1.9 1.9 0 0 1-.554.868c-.303.29-.681.424-1.059.455-.476.042-.908-.137-1.26-.362l-.026-.016-.024-.019c-.698-.52-1.407-.883-2.128-1.1l-.009-.002-.008-.003c-.73-.236-1.552-.36-2.475-.36-.933 0-1.7.14-2.324.394-.593.25-1.036.602-1.358 1.052-.293.417-.45.91-.45 1.517 0 .73.214 1.217.57 1.561.406.374 1.152.722 2.37.958h.007l3.004.633h.002c2.005.415 3.603 1.068 4.687 2.03C27.448 12.935 28 14.283 28 15.89c0 .962-.199 1.866-.606 2.698a6.1 6.1 0 0 1-1.738 2.131l-.006.005-.006.005c-.75.571-1.638.997-2.646 1.29-1.015.294-2.137.435-3.356.435q-1.429 0-2.804-.243a14 14 0 0 1-2.58-.703l-.004-.002m11.474-8.915q-1.384-1.234-4.298-1.837l-3-.631q-1.932-.373-2.797-1.177-.837-.803-.837-2.18 0-1.148.606-2.009.635-.89 1.73-1.348 1.125-.46 2.654-.46 1.5 0 2.74.402 1.24.373 2.395 1.234.404.258.72.23.346-.03.549-.23a1.03 1.03 0 0 0 .317-.488q.087-.315-.029-.63a1.3 1.3 0 0 0-.433-.604A8.7 8.7 0 0 0 23.19 1.37Q21.633.854 19.815.854q-1.644 0-3 .43-1.355.431-2.336 1.234a5.4 5.4 0 0 0-1.529 1.894q-.548 1.09-.548 2.439 0 2.18 1.327 3.5 1.356 1.292 4.067 1.865l3 .603q2.134.431 3.029 1.176.922.718.922 2.009 0 1.578-1.269 2.554-1.24.946-3.836.947-1.845 0-3.317-.402a9.3 9.3 0 0 1-2.769-1.349q-.374-.23-.692-.2a.87.87 0 0 0-.548.258q-.202.23-.289.573-.057.315.058.66.145.316.49.574.895.66 1.99 1.09 1.125.432 2.423.66 1.298.23 2.654.23 1.73 0 3.115-.401 1.385-.402 2.365-1.148a5.3 5.3 0 0 0 1.5-1.837q.52-1.06.52-2.324 0-2.094-1.414-3.3" clip-rule="evenodd"/></symbol>
<symbol id="linkedin" xmlns="http://www.w3.org/2000/svg" fill="none" viewBox="0 0 29 27"><path d="M19.772 8.696c2.146 0 4.205.831 5.722 2.311a7.8 7.8 0 0 1 2.37 5.581v9.208H22.47v-9.208c0-.697-.284-1.367-.79-1.86a2.73 2.73 0 0 0-1.908-.77c-.715 0-1.401.277-1.907.77a2.6 2.6 0 0 0-.79 1.86v9.208H11.68v-9.208c0-2.093.853-4.1 2.37-5.58a8.2 8.2 0 0 1 5.722-2.312M6.286 10.011H.89v15.785h5.395zM3.588 6.065c1.49 0 2.698-1.178 2.698-2.631S5.078.804 3.588.804.891 1.98.891 3.433s1.208 2.63 2.697 2.63"/></symbol>
<symbol id="list-dot" width="4" height="5" viewBox="0 0 4 5" fill="none" xmlns="http://www.w3.org/2000/svg">
<circle cx="2" cy="2.46167" r="2" fill="#030303"/>
</symbol>

<symbol id="node" xmlns="http://www.w3.org/2000/svg" width="36" height="20" fill="none"><path fill="#030303" fill-rule="evenodd" d="m.446 19.456-.012-.013C.112 19.073 0 18.6 0 18.136V1.839C0 1.374.112.902.434.53.747.171 1.161 0 1.61 0c.304 0 .686.05.992.299.232.164.43.406.6.653l8.767 12.232V1.788c0-.45.113-.914.445-1.27C12.75.14 13.201 0 13.65 0c.438 0 .882.144 1.201.532.322.354.433.812.433 1.256V18.16c0 .44-.1.885-.382 1.249-.303.393-.733.539-1.154.539-.334 0-.687-.07-.991-.282a2.9 2.9 0 0 1-.638-.657l-.003-.003L3.34 6.737v11.399c0 .464-.112.936-.434 1.307l-.012.013-.012.013c-.334.35-.769.48-1.2.48-.435 0-.883-.122-1.225-.48zm2.167-15.01 10.083 14.1q.245.333.465.486.22.154.587.154.392 0 .588-.256.22-.282.22-.769V1.788q0-.487-.245-.744-.22-.28-.66-.281-.465 0-.71.281-.245.256-.245.744V15.47L2.613 1.403q-.245-.358-.44-.487Q2 .763 1.608.763a.8.8 0 0 0-.636.281q-.245.282-.245.795v16.297q0 .512.245.794.245.255.71.256.44 0 .685-.256.245-.282.245-.794zm14.84 15.475-.014.001c-.457.025-.927-.1-1.275-.49a1.75 1.75 0 0 1-.47-1.22c0-.382.123-.73.341-1.022.28-.401.699-.558 1.1-.584l.752-.051c.685-.057 1.122-.292 1.408-.633.297-.37.485-.92.485-1.732V1.838c0-.464.105-.963.458-1.334C20.59.137 21.05 0 21.512 0c.447 0 .908.129 1.25.505.365.365.482.862.482 1.334v12.376c0 1.062-.178 2.024-.56 2.865l-.002.003-.001.003a4.44 4.44 0 0 1-1.757 1.965c-.753.464-1.648.718-2.657.793zm.755-.837q1.395-.104 2.35-.692a3.7 3.7 0 0 0 1.468-1.64q.49-1.077.49-2.537V1.84q0-.538-.27-.795-.244-.28-.734-.281-.49 0-.759.281-.244.256-.244.795v12.35q0 1.41-.661 2.23-.66.794-1.909.897l-.759.05q-.39.027-.563.283a.9.9 0 0 0-.195.563q0 .41.269.692.245.282.71.256zm9.918.613h-.002a6.7 6.7 0 0 1-2.298-1.088l-.001-.001-.002-.001a1.75 1.75 0 0 1-.59-.725l-.006-.014-.005-.013a1.84 1.84 0 0 1-.121-.854l.003-.033.007-.033c.054-.285.17-.553.357-.782l.018-.022.02-.02c.212-.223.481-.377.795-.42.354-.066.689.024.975.174l.03.015.026.017c.587.378 1.132.635 1.638.783q.819.207 1.603.206c.86 0 1.382-.17 1.677-.393.283-.214.409-.47.409-.843 0-.285-.082-.435-.206-.544l-.008-.007-.008-.008c-.175-.163-.522-.348-1.14-.49l-2.222-.511c-1.109-.24-2.03-.674-2.672-1.368l-.004-.005-.004-.005c-.637-.71-.931-1.617-.931-2.648 0-.905.223-1.724.7-2.418v-.002l.002-.002c.48-.691 1.14-1.208 1.947-1.561.808-.354 1.723-.52 2.729-.52q1.172-.002 2.235.337 1.101.319 1.993 1.043c.254.19.46.45.567.782.12.31.13.634.046.945a1.6 1.6 0 0 1-.41.757l-.02.02-.021.02c-.238.213-.52.327-.818.359-.368.038-.701-.086-.977-.27l-.007-.004-.006-.004a4.6 4.6 0 0 0-1.292-.646l-.01-.003-.01-.003a4 4 0 0 0-1.27-.22c-.835 0-1.346.175-1.64.409a1.03 1.03 0 0 0-.422.879c0 .298.085.49.227.639.155.161.457.338 1.006.46l2.228.486h.002c1.128.255 2.063.682 2.72 1.343.71.68 1.037 1.598 1.037 2.658 0 1.369-.542 2.494-1.594 3.304-1.026.79-2.343 1.148-3.882 1.148a9.8 9.8 0 0 1-2.397-.303zm6.338-6.25q-.783-.794-2.374-1.154l-2.227-.486q-.93-.206-1.37-.667-.441-.46-.441-1.178 0-.922.71-1.487.71-.563 2.08-.563.735 0 1.493.256a5.3 5.3 0 0 1 1.493.743q.269.179.514.154a.7.7 0 0 0 .416-.18.84.84 0 0 0 .22-.41.7.7 0 0 0-.025-.486.8.8 0 0 0-.318-.436 4.9 4.9 0 0 0-1.762-.923 6.6 6.6 0 0 0-2.031-.307q-1.395 0-2.447.461t-1.64 1.307q-.563.82-.563 1.973 0 1.306.734 2.127.76.82 2.3 1.153l2.228.512q1.003.23 1.468.667.465.41.465 1.127 0 .923-.71 1.46-.71.54-2.104.539a7.2 7.2 0 0 1-1.787-.23q-.881-.258-1.835-.872-.294-.154-.539-.103a.63.63 0 0 0-.391.205.96.96 0 0 0-.196.436q-.025.23.073.487.099.23.343.41a6 6 0 0 0 2.056.974q1.125.28 2.227.281 2.153 0 3.45-.999 1.298-1 1.298-2.69 0-1.334-.808-2.102" clip-rule="evenodd"/></symbol>
<symbol id="nodejs"  viewBox="0 1 25 22" xmlns="http://www.w3.org/2000/svg">
  <path d="M11.74 1.88c-.11.016-.263.056-.34.089-.34.144-7.792 4.487-7.932 4.623a1.965 1.965 0 0 0-.3.446l-.148.298v9.328l.151.306c.101.204.214.361.34.472.227.2 2.195 1.335 2.628 1.515.463.193.865.283 1.257.282 1.182-.002 1.944-.572 2.18-1.627.057-.255.064-.802.064-4.782 0-3.442-.011-4.505-.048-4.542-.067-.067-1.197-.067-1.264 0-.037.037-.048 1.062-.048 4.373 0 4.753.009 4.565-.243 4.87-.203.245-.402.329-.777.325-.429-.004-.548-.055-1.82-.787l-1.06-.609V7.542l3.76-2.169c2.225-1.285 3.801-2.17 3.86-2.17.059 0 1.631.883 3.86 2.17l3.76 2.17v8.916l-1.04.601c-3.052 1.765-6.488 3.739-6.544 3.76-.04.015-.432-.199-1.06-.578-.548-.331-1.037-.601-1.086-.602-.05 0-.239.079-.42.177a5.58 5.58 0 0 1-.64.285c-.318.111-.362.16-.24.266.039.034.682.423 1.43.865 1.487.879 1.671.958 2.107.913a1.91 1.91 0 0 0 .42-.1c.325-.127 7.739-4.426 7.942-4.604.126-.112.239-.268.34-.472l.151-.306V7.336l-.148-.298a1.965 1.965 0 0 0-.3-.446c-.163-.159-7.66-4.515-7.972-4.633a1.82 1.82 0 0 0-.82-.079m1.526 6.164c-1.373.145-2.311.788-2.59 1.776-.079.282-.069.942.019 1.229.206.673.77 1.122 1.718 1.371.481.126.704.163 1.567.26 1.65.186 2.308.386 2.485.756.08.168.059.603-.038.79-.15.291-.438.477-.939.605-.393.1-2.064.098-2.468-.004-.756-.19-1.052-.464-1.218-1.129-.045-.179-.109-.339-.148-.368-.048-.034-.239-.05-.615-.05-.642 0-.679.019-.678.343.002.531.247 1.165.599 1.55.476.52 1.131.823 2.143.992.503.084 1.904.072 2.397-.02.506-.095.986-.257 1.328-.448.322-.18.751-.6.903-.884.326-.609.352-1.501.062-2.119-.122-.26-.444-.568-.774-.74-.535-.279-1.091-.413-2.639-.634-1.44-.205-1.972-.343-2.153-.559-.128-.153-.162-.356-.104-.634a.64.64 0 0 1 .212-.391c.305-.303.771-.415 1.731-.416 1.359 0 1.918.283 2.178 1.105.129.407.144.415.78.415.757 0 .774-.026.571-.834-.236-.941-.901-1.56-1.955-1.822-.661-.165-1.61-.221-2.374-.14" fill="none" stroke="#030303" stroke-width="0.5"/>
</symbol>
<symbol id="phone" xmlns="http://www.w3.org/2000/svg" fill="none" viewBox="0 0 20 20"><path d="M12.15 4.44a4.31 4.31 0 0 1 3.403 3.398M12.15 1a7.76 7.76 0 0 1 4.624 2.216A7.74 7.74 0 0 1 19 7.83m-.862 6.864v2.58a1.72 1.72 0 0 1-1.171 1.636 1.7 1.7 0 0 1-.707.084 17.1 17.1 0 0 1-7.437-2.64 16.8 16.8 0 0 1-5.17-5.161 17 17 0 0 1-2.646-7.457 1.72 1.72 0 0 1 1.02-1.728c.219-.097.456-.147.695-.147h2.585a1.725 1.725 0 0 1 1.724 1.48c.109.825.311 1.636.603 2.416a1.72 1.72 0 0 1-.388 1.815L6.152 8.663a13.8 13.8 0 0 0 5.17 5.16l1.094-1.091a1.72 1.72 0 0 1 1.819-.387 11 11 0 0 0 2.421.602 1.724 1.724 0 0 1 1.482 1.746"/></symbol>
<symbol id="postman" xmlns="http://www.w3.org/2000/svg" width="37" height="35"><path d="M30.35.686c-.817.136-1.705.537-2.155.973-.559.543-1.11 1.471-1.24 2.09-.119.57-.087 1.787.06 2.272.357 1.174 1.087 2.019 2.184 2.525.684.317 1.264.417 2.189.38.646-.027 1.931-.234 2.029-.329.021-.019-1.24-1.366-2.598-2.774l-.361-.374 1.437-1.445c1.624-1.633 2.022-2.114 2.022-2.446 0-.58-1.01-.949-2.559-.934a8.82 8.82 0 0 0-1.008.062m2.41.86c.128.043.232.105.232.139 0 .033-.823.887-1.829 1.899l-1.829 1.838.919.963c1.061 1.113 1.567 1.667 1.567 1.719 0 .063-1.213.039-1.554-.031a4.552 4.552 0 0 1-.82-.304c-1.287-.616-1.976-2.001-1.762-3.541.08-.578.315-1.096.726-1.604.509-.63.974-.903 1.899-1.116.456-.104 2.107-.079 2.451.038m.552 1.749c-.99 1.036-1.8 1.904-1.8 1.93 0 .089 1.417 1.897 1.891 2.414.512.556.767.747 1.002.747.555.001 1.305-.972 1.687-2.189.229-.729.314-1.365.274-2.052-.056-.969-.358-1.703-1.004-2.445l-.25-.288-1.8 1.883m1.948-.378c.586 1.172.339 3.087-.56 4.344-.103.144-.222.262-.264.262-.135 0-1.876-2.076-1.876-2.237 0-.063 2.465-2.634 2.525-2.634.024 0 .103.119.175.265M23.292 6.871c-1.457.516-2.684 1.555-10.352 8.764l-.412.387 1.234 1.146c.678.631 1.253 1.147 1.276 1.147.055 0 11.388-10.616 11.422-10.699.037-.088-.58-.489-1.053-.687-.332-.138-.513-.171-1.049-.187-.558-.017-.705.001-1.066.129m1.728.747c.121.05.209.102.196.113l-5.103 4.777-5.079 4.756-.665-.622-.666-.622 2.323-2.167 3.514-3.277c1.247-1.163 2.503-2.157 3.316-2.622.822-.47 1.566-.586 2.164-.336m1.959 1.159c-.404.133-.524.216-.482.335.03.085.021.092-.042.034-.063-.059-1.103.942-5.112 4.921-2.768 2.748-5.032 5.017-5.032 5.044 0 .07 1.704 1.617 1.758 1.596.025-.01 2.417-2.105 5.316-4.656 5.117-4.502 5.276-4.649 5.438-5.01.415-.924.3-1.69-.32-2.125-.226-.159-.32-.184-.767-.201-.309-.011-.608.013-.757.062m1.185.881c.147.202.155.481.023.856-.07.2-.149.382-.174.406l-5.005 4.401-4.958 4.359-.3-.296-.301-.296 4.673-4.676c2.57-2.572 4.751-4.718 4.846-4.769.402-.213 1.035-.205 1.196.015m-3.189 6.655c-3.103 2.76-5.643 5.043-5.643 5.074 0 .076 2.003 2.258 2.094 2.28.092.022 4.437-4.358 5.432-5.475 1.476-1.659 2.403-3.051 3.04-4.564.27-.642.824-2.346.76-2.338-.022.002-2.58 2.263-5.683 5.023m3.67-1.898c-.389.713-1.119 1.758-1.782 2.552-.696.832-2.655 2.872-4.355 4.533l-1.079 1.055-.48-.532c-.265-.293-.474-.56-.466-.594.018-.075 8.264-7.421 8.336-7.427.029-.002-.05.184-.174.413m-18.287 4.123c-1.033 1.037-1.823 1.87-1.755 1.85.067-.019 1.468-.343 3.113-.719 1.644-.377 3.002-.697 3.017-.712.016-.015.002-.05-.03-.077a687.594 687.594 0 0 1-2.279-2.055l-.186-.172-1.88 1.885m2.345-.389c.211.196.374.367.362.378-.026.024-1.926.466-2.003.466-.029 0 .224-.277.562-.617.339-.339.633-.61.654-.601.022.009.213.177.425.374m-.178 2.33c-.59.609-1.062 1.115-1.048 1.125.025.02 4.03-.302 4.218-.338.08-.016-.198-.29-.974-.962-.597-.517-1.094-.939-1.104-.936-.011.002-.502.502-1.092 1.111m1.274.106c.015.045-.041.073-.142.073-.143 0-.156-.013-.089-.094.086-.104.193-.094.231.021m-.109 1.316-2.066.367-4.236 4.267c-2.33 2.347-4.231 4.288-4.224 4.314.016.061 3.83 3.736 3.855 3.714.01-.009-.128-.754-.307-1.654-.179-.901-.313-1.648-.297-1.662.016-.013 2.631-1.752 5.81-3.864 3.18-2.113 5.782-3.862 5.782-3.888 0-.027-.446-.481-.992-1.011-.694-.674-1.031-.96-1.125-.956-.074.003-1.064.171-2.2.373m2.585.982c.299.283.495.514.463.543-.032.028-2.572 1.721-5.645 3.762l-5.588 3.71.117.569c.064.313.107.61.095.661-.013.061-.264-.146-.72-.593-.651-.639-.693-.694-.612-.809.047-.068 1.781-1.831 3.853-3.917l3.767-3.795 1.721-.309c.947-.17 1.791-.31 1.876-.312.11-.002.302.138.673.49M1.576 32.901c-.8.773-1.443 1.416-1.429 1.43.029.029 5.476.385 5.91.386l.292.001-1.032-1.002-1.659-1.61-.627-.609-1.455 1.404m2.078.322.6.602-1.113-.071c-.613-.039-1.126-.083-1.14-.098-.026-.025.979-1.034 1.03-1.034.013 0 .294.27.623.601" fill-rule="evenodd"/></symbol>
<symbol id="react" xmlns="http://www.w3.org/2000/svg" width="28" height="28" fill="none"><path fill="#030303" fill-rule="evenodd" d="M12.201 23.276c2.068-1.485 4.33-3.926 6.263-6.982s3.129-6.09 3.525-8.503c.198-1.21.189-2.223.001-2.993-.187-.767-.532-1.222-.95-1.454-.419-.232-1.01-.297-1.817-.083-.81.215-1.763.694-2.799 1.438-2.068 1.484-4.33 3.925-6.262 6.982-1.932 3.056-3.13 6.09-3.525 8.503-.199 1.209-.19 2.223-.002 2.992.188.767.532 1.222.95 1.455.42.232 1.01.297 1.817.083.81-.215 1.764-.694 2.8-1.438m-5.026 2.003c2.675 1.487 8.04-2.364 11.98-8.6 3.943-6.237 4.97-12.498 2.295-13.984S13.412 5.06 9.47 11.296 4.5 23.793 7.175 25.28" clip-rule="evenodd"/><path fill="#030303" fill-rule="evenodd" d="M21.853 20.255c-.375-2.417-1.547-5.459-3.452-8.53s-4.147-5.53-6.202-7.03c-1.03-.75-1.979-1.237-2.787-1.458-.805-.22-1.397-.16-1.817.07-.42.229-.769.68-.963 1.446-.194.768-.212 1.782-.024 2.992.375 2.417 1.546 5.459 3.452 8.53s4.147 5.529 6.202 7.03c1.03.75 1.978 1.237 2.786 1.458.806.22 1.397.16 1.818-.07.42-.229.768-.68.962-1.446.195-.768.213-1.782.025-2.992m-.583 5.09c2.688-1.465 1.715-7.733-2.174-14C15.208 5.08 9.878 1.189 7.19 2.656c-2.687 1.465-1.714 7.733 2.174 14 3.888 6.265 9.219 10.157 11.906 8.69" clip-rule="evenodd"/><path fill="#030303" fill-rule="evenodd" d="M23.6 10.962C21.182 10.05 17.79 9.47 14 9.47s-7.183.58-9.6 1.492c-1.21.456-2.135.98-2.745 1.524-.609.542-.85 1.052-.85 1.508s.241.966.85 1.508c.61.544 1.535 1.068 2.746 1.525 2.416.91 5.81 1.491 9.599 1.491s7.183-.58 9.6-1.491c1.21-.457 2.135-.981 2.745-1.525.609-.542.85-1.052.85-1.508s-.241-.966-.85-1.508c-.61-.543-1.535-1.068-2.746-1.524m4.4 3.032c0-2.915-6.268-5.278-14-5.278S0 11.079 0 13.994s6.268 5.279 14 5.279 14-2.364 14-5.279" clip-rule="evenodd"/><path fill="#030303" fill-rule="evenodd" d="M14.28 15.463c.876 0 1.586-.666 1.586-1.488s-.71-1.487-1.586-1.487-1.587.665-1.587 1.487.71 1.488 1.587 1.488m0 .754c1.32 0 2.391-1.004 2.391-2.242s-1.07-2.242-2.391-2.242-2.391 1.004-2.391 2.242 1.07 2.242 2.39 2.242" clip-rule="evenodd"/></symbol>
<symbol id="telegram" xmlns="http://www.w3.org/2000/svg" fill="none" viewBox="0 0 29 22"><path d="M26.06.77 1.806 9.127c-1.23.423-1.21 1.065.045 1.425L7.3 11.96l2.864 7.392c.435 1.122 1.583 1.381 2.552.576l3.643-3.028 5.12 3.722c1.041.728 2.106.371 2.368-.794l3.973-17.71C28.082.951 27.29.345 26.06.77"/><path d="m7.373 11.926 14.595-6.73-9.36 8.977-1.656 6.055m1.7-6.023 8.783 6.384"/></symbol>
</svg>