<svg width="100" height="100" style="display: none">

<symbol id="burger" xmlns="http://www.w3.org/2000/svg" width="29" height="20" fill="none"><path stroke="null" stroke-linecap="round" stroke-linejoin="round" stroke-width="2" d="M22 7H1m27-6H1m27 12H1m21 6H1"/></symbol>
<symbol id="circle" xmlns="http://www.w3.org/2000/svg" width="4" height="5" fill="none"><circle cx="2" cy="2.462" r="2" fill="#030303"/></symbol>
<symbol id="css" xmlns="http://www.w3.org/2000/svg" width="28" height="29" fill="none"><path fill="#030303" fill-rule="evenodd" d="M.142 1.112A.55.55 0 0 1 .52.967h26.963c.145 0 .283.055.382.15a.44.44 0 0 1 .134.356l-.463 4.792a.47.47 0 0 1-.285.376l-8.76 3.922 7.968.247a.54.54 0 0 1 .372.158c.094.097.14.224.126.352l-1.562 14.429a.48.48 0 0 1-.379.404l-11.051 2.73a.6.6 0 0 1-.274 0l-11.11-2.73a.48.48 0 0 1-.38-.414l-.636-7.472a.44.44 0 0 1 .136-.352.55.55 0 0 1 .38-.149h5.613c.287 0 .519.209.519.466v3.454l5.61 1.32 5.253-1.324.6-5.252H1.79c-.271 0-.497-.189-.517-.432L.87 10.999a.46.46 0 0 1 .276-.445L9.302 6.69H.808c-.276 0-.503-.193-.518-.44L0 1.458a.44.44 0 0 1 .142-.346m.924.786.233 3.861h10.097c.239 0 .446.146.504.354s-.051.424-.262.524l-9.71 4.598.346 4.264h17.975c.147 0 .287.056.385.153a.44.44 0 0 1 .13.36l-.694 6.08a.48.48 0 0 1-.375.401l-5.728 1.443a.6.6 0 0 1-.272.002l-6.133-1.443c-.228-.053-.387-.238-.387-.45v-3.348H2.64l.566 6.644 10.62 2.611 10.57-2.612 1.474-13.617-9.458-.292c-.237-.007-.438-.158-.488-.366-.051-.209.062-.42.275-.516l10.328-4.624.389-4.027z" clip-rule="evenodd"/></symbol>
<symbol id="dev-symbol" xmlns="http://www.w3.org/2000/svg" width="76" height="54" fill="none" viewBox="0 0 86 68"><path fill="#878382" fill-opacity=".5" d="M46.482 5.865a3.826 3.826 0 0 0-4.299 3.323L35.95 57.394c-.268 2.102 1.274 3.758 3.322 4.298 2.098.561 4.117-.389 4.299-3.322l6.234-48.206c.27-2.088-1.217-4.017-3.322-4.299Zm31.767 17.713L57.017 15.12a3.84 3.84 0 0 0-4.99 2.148 3.84 3.84 0 0 0 2.147 4.99l15.698 6.257-12.185 11.71c-1.531 1.47-1.434 3.779-.11 5.431 1.347 1.68 3.439 1.579 5.433.11l16.478-15.848a3.82 3.82 0 0 0 1.104-3.5 3.86 3.86 0 0 0-2.343-2.84M31.6 45.326l-15.7-6.257L28.087 27.36a3.84 3.84 0 0 0 .109-5.432 3.84 3.84 0 0 0-5.432-.11L6.282 37.653a3.83 3.83 0 0 0-1.118 3.502 3.84 3.84 0 0 0 2.34 2.826l21.235 8.472c3.304.973 4.366-.453 4.99-2.147.754-1.982-.174-4.205-2.13-4.98Z"/></symbol>
<symbol id="ellipse-three" width="474.000000" height="474.000000" viewBox="0 0 474 474"  xmlns="http://www.w3.org/2000/svg" xmlns:xlink="http://www.w3.org/1999/xlink">

	<!-- <defs>
		<filter  x="0.000000" y="0.000000" width="474.000000" height="474.000000" filterUnits="userSpaceOnUse" color-interpolation-filters="sRGB">
			<feFlood flood-opacity="0" result="BackgroundImageFix"/>
			<feBlend mode="normal" in="SourceGraphic" in2="BackgroundImageFix" result="shape"/>
			<feGaussianBlur stdDeviation="50" result="effect_layerBlur_1"/>
		</filter>
	</defs> -->
	<g filter="url(#filter_7_2_dd)">
		<circle id="Ellipse 3" cx="237.000000" cy="237.000000" r="87.000000"/>
	</g>
</symbol>

<symbol id="email" xmlns="http://www.w3.org/2000/svg" width="29" height="22" fill="none"><path stroke="#E6EAE9" stroke-linecap="round" stroke-linejoin="round" stroke-width=".876" d="M3.697 1h21.579c1.483 0 2.697 1.146 2.697 2.546v15.273c0 1.4-1.214 2.546-2.697 2.546H3.697C2.214 21.365 1 20.22 1 18.819V3.546C1 2.146 2.214 1 3.697 1"/><path stroke="#E6EAE9" stroke-linecap="round" stroke-linejoin="round" stroke-width=".876" d="m27.973 3.444-13.486 8.96L1 3.445"/></symbol>
<symbol id="figma" xmlns="http://www.w3.org/2000/svg" width="20" height="28" fill="none"><path fill="#030303" fill-rule="evenodd" d="M4.91 8.982c-1.43-.07-2.393-.613-2.989-1.347-.605-.745-.87-1.732-.81-2.736C1.236 2.866 2.65.976 4.9.976h9.058V.488v.488c2.586 0 4.183 1.966 4.337 3.968.076.994-.208 1.972-.887 2.71-.674.734-1.785 1.281-3.456 1.328zM.14 4.84C.284 2.455 1.986 0 4.9 0h9.057v.488V0c3.162 0 5.12 2.428 5.308 4.869.094 1.226-.255 2.482-1.141 3.446-.89.968-2.273 1.592-4.153 1.643H4.876c-1.68-.079-2.917-.73-3.71-1.706C.38 7.285.066 6.045.14 4.84" clip-rule="evenodd"/><path fill="#030303" fill-rule="evenodd" d="M9.088 9.47V.489h.974v8.983z" clip-rule="evenodd"/><path fill="#030303" fill-rule="evenodd" d="M4.549 8.982h5.513V19.04H4.366l-.046-.01C1.557 18.498.061 16.363.051 14.153c-.01-2.217 1.47-4.432 4.441-5.156zm.118.977c-2.517.636-3.65 2.459-3.642 4.188.008 1.738 1.163 3.458 3.435 3.915h4.628V9.96z" clip-rule="evenodd"/><path fill="#030303" fill-rule="evenodd" d="M.247 21.6c.5-1.527 1.776-2.939 4.044-3.522l.242.945c-1.954.503-2.967 1.68-3.36 2.882-.404 1.236-.156 2.491.401 3.17l.015.018.014.02c1.588 2.38 5.055 2.709 6.887-.002v-.002c.21-.307.38-.67.486-1.594.109-.944.147-2.429.112-4.958l.974-.013c.035 2.528-.001 4.07-.118 5.083-.12 1.033-.326 1.56-.649 2.033-2.254 3.334-6.55 2.894-8.488.016-.795-.983-1.045-2.59-.56-4.075M14.153 17.672a3.61 3.61 0 0 0 3.603-3.613 3.61 3.61 0 0 0-3.603-3.612 3.61 3.61 0 0 0-3.604 3.613 3.61 3.61 0 0 0 3.604 3.612m0 .976a4.583 4.583 0 0 0 4.577-4.588 4.583 4.583 0 0 0-4.577-4.59 4.583 4.583 0 0 0-4.578 4.59 4.583 4.583 0 0 0 4.578 4.588" clip-rule="evenodd"/></symbol>
<symbol id="git" xmlns="http://www.w3.org/2000/svg" fill="none" viewBox="0 0 30 30"><path d="M11.051 25.005C3.871 27.003 3.871 21.676 1 21.01M21.103 29v-5.153a4.2 4.2 0 0 0-.272-1.873c-.232-.6-.6-1.146-1.078-1.603C24.262 19.905 29 18.321 29 11.05c0-1.86-.771-3.648-2.154-4.994a6.3 6.3 0 0 0-.13-5.02s-1.693-.466-5.613 1.97a20.67 20.67 0 0 0-10.052 0C7.131.57 5.437 1.037 5.437 1.037a6.3 6.3 0 0 0-.13 5.02c-1.392 1.356-2.164 3.16-2.153 5.033 0 7.218 4.738 8.803 9.247 9.322a4.46 4.46 0 0 0-1.07 1.584 4.2 4.2 0 0 0-.28 1.852V29"/></symbol>
<symbol id="html" xmlns="http://www.w3.org/2000/svg" width="28" height="29" fill="none"><path fill="#030303" fill-rule="evenodd" d="M.136 1.113A.55.55 0 0 1 .515.967h26.97a.55.55 0 0 1 .378.145.42.42 0 0 1 .136.342l-.41 4.764c-.02.236-.243.42-.512.42H7.257l.332 3.855h19.079c.144 0 .281.054.379.147a.42.42 0 0 1 .134.345L25.78 25.74c-.018.189-.167.348-.375.399l-11.15 2.744a.6.6 0 0 1-.276 0L2.77 26.14c-.208-.051-.358-.212-.375-.403l-.642-7.403a.42.42 0 0 1 .135-.343.55.55 0 0 1 .378-.145H7.87c.285 0 .515.203.515.453v3.284l5.727 1.472 5.363-1.475.555-5.054H1.916c-.268 0-.49-.18-.513-.415L.002 1.458a.42.42 0 0 1 .134-.345m.939.76L2.389 15.62h18.208c.145 0 .283.054.38.149a.42.42 0 0 1 .132.348l-.642 5.85a.47.47 0 0 1-.36.39l-5.837 1.605a.6.6 0 0 1-.297.003l-6.247-1.605c-.22-.057-.37-.234-.37-.436v-3.17H2.822l.572 6.598 10.722 2.625 10.668-2.625 1.324-13.95H7.111c-.269 0-.493-.183-.513-.42L6.19 6.218a.42.42 0 0 1 .135-.343.55.55 0 0 1 .378-.145h19.896l.331-3.856z" clip-rule="evenodd"/></symbol>
<symbol id="icon-close" xmlns="http://www.w3.org/2000/svg" fill="none" viewBox="0 0 29 29"><path stroke="#fff" stroke-linecap="round" stroke-linejoin="round" stroke-width="2" d="M28 1 1 28M1 1l27 27"/></symbol>
<symbol id="js" xmlns="http://www.w3.org/2000/svg" width="28" height="23" fill="none"><path fill="#030303" fill-rule="evenodd" d="M2.074 22.365h-.017c-.538.029-1.091-.11-1.502-.549A1.9 1.9 0 0 1 0 20.451c0-.428.146-.817.403-1.144.329-.45.824-.625 1.296-.655l.886-.057c.808-.064 1.323-.326 1.66-.708.35-.415.572-1.03.572-1.94V2.117c0-.52.123-1.08.54-1.494.415-.413.957-.566 1.501-.566.527 0 1.07.145 1.473.566.43.409.568.965.568 1.493v13.86c0 1.189-.21 2.266-.66 3.207l-.002.004-.002.003a5.06 5.06 0 0 1-2.07 2.2c-.887.52-1.942.804-3.132.888zm.89-.938q1.645-.114 2.77-.775a4.2 4.2 0 0 0 1.73-1.836q.577-1.205.577-2.84V2.115q0-.602-.318-.889-.288-.316-.865-.316t-.894.316q-.288.287-.289.89v13.83q0 1.578-.778 2.496-.78.89-2.25 1.004l-.894.058q-.463.028-.664.315a1 1 0 0 0-.23.631q0 .46.317.775.287.315.836.287zm11.29.078-.004-.001a9.5 9.5 0 0 1-2.186-1.199l-.002-.001-.002-.002a2.36 2.36 0 0 1-.757-.903l-.018-.041-.014-.043a2.16 2.16 0 0 1-.088-1.082l.005-.028.006-.027c.086-.34.238-.658.476-.929l.019-.021.02-.02c.292-.29.66-.467 1.077-.505.455-.041.871.11 1.22.324l.024.015.024.016a8.4 8.4 0 0 0 2.506 1.223c.891.243 1.916.37 3.082.37 1.655 0 2.706-.307 3.313-.77.637-.49.934-1.093.934-1.877 0-.63-.21-1.038-.593-1.336l-.012-.009-.011-.01c-.428-.356-1.263-.714-2.647-.993m0 0-3.004-.603-.005-.001c-1.893-.401-3.42-1.073-4.482-2.084l-.006-.006-.007-.007c-1.072-1.067-1.578-2.465-1.578-4.104 0-1.016.207-1.96.636-2.817a6.3 6.3 0 0 1 1.76-2.18c.745-.61 1.622-1.068 2.614-1.383 1-.318 2.09-.471 3.261-.471 1.29 0 2.505.183 3.637.557a9.5 9.5 0 0 1 3.128 1.637l.005.004.004.004c.318.259.565.586.7.982.132.368.15.755.046 1.137l-.003.01-.003.01a1.9 1.9 0 0 1-.554.868c-.303.29-.681.424-1.059.455-.476.042-.908-.137-1.26-.362l-.026-.016-.024-.019c-.698-.52-1.407-.883-2.128-1.1l-.009-.002-.008-.003c-.73-.236-1.552-.36-2.475-.36-.933 0-1.7.14-2.324.394-.593.25-1.036.602-1.358 1.052-.293.417-.45.91-.45 1.517 0 .73.214 1.217.57 1.561.406.374 1.152.722 2.37.958h.007l3.004.633h.002c2.005.415 3.603 1.068 4.687 2.03C27.448 12.935 28 14.283 28 15.89c0 .962-.199 1.866-.606 2.698a6.1 6.1 0 0 1-1.738 2.131l-.006.005-.006.005c-.75.571-1.638.997-2.646 1.29-1.015.294-2.137.435-3.356.435q-1.429 0-2.804-.243a14 14 0 0 1-2.58-.703l-.004-.002m11.474-8.915q-1.384-1.234-4.298-1.837l-3-.631q-1.932-.373-2.797-1.177-.837-.803-.837-2.18 0-1.148.606-2.009.635-.89 1.73-1.348 1.125-.46 2.654-.46 1.5 0 2.74.402 1.24.373 2.395 1.234.404.258.72.23.346-.03.549-.23a1.03 1.03 0 0 0 .317-.488q.087-.315-.029-.63a1.3 1.3 0 0 0-.433-.604A8.7 8.7 0 0 0 23.19 1.37Q21.633.854 19.815.854q-1.644 0-3 .43-1.355.431-2.336 1.234a5.4 5.4 0 0 0-1.529 1.894q-.548 1.09-.548 2.439 0 2.18 1.327 3.5 1.356 1.292 4.067 1.865l3 .603q2.134.431 3.029 1.176.922.718.922 2.009 0 1.578-1.269 2.554-1.24.946-3.836.947-1.845 0-3.317-.402a9.3 9.3 0 0 1-2.769-1.349q-.374-.23-.692-.2a.87.87 0 0 0-.548.258q-.202.23-.289.573-.057.315.058.66.145.316.49.574.895.66 1.99 1.09 1.125.432 2.423.66 1.298.23 2.654.23 1.73 0 3.115-.401 1.385-.402 2.365-1.148a5.3 5.3 0 0 0 1.5-1.837q.52-1.06.52-2.324 0-2.094-1.414-3.3" clip-rule="evenodd"/></symbol>
<symbol id="linkedin" xmlns="http://www.w3.org/2000/svg" fill="none" viewBox="0 0 29 27"><path d="M19.772 8.696c2.146 0 4.205.831 5.722 2.311a7.8 7.8 0 0 1 2.37 5.581v9.208H22.47v-9.208c0-.697-.284-1.367-.79-1.86a2.73 2.73 0 0 0-1.908-.77c-.715 0-1.401.277-1.907.77a2.6 2.6 0 0 0-.79 1.86v9.208H11.68v-9.208c0-2.093.853-4.1 2.37-5.58a8.2 8.2 0 0 1 5.722-2.312M6.286 10.011H.89v15.785h5.395zM3.588 6.065c1.49 0 2.698-1.178 2.698-2.631S5.078.804 3.588.804.891 1.98.891 3.433s1.208 2.63 2.697 2.63"/></symbol>
<symbol id="node" xmlns="http://www.w3.org/2000/svg" width="36" height="20" fill="none"><path fill="#030303" fill-rule="evenodd" d="m.446 19.456-.012-.013C.112 19.073 0 18.6 0 18.136V1.839C0 1.374.112.902.434.53.747.171 1.161 0 1.61 0c.304 0 .686.05.992.299.232.164.43.406.6.653l8.767 12.232V1.788c0-.45.113-.914.445-1.27C12.75.14 13.201 0 13.65 0c.438 0 .882.144 1.201.532.322.354.433.812.433 1.256V18.16c0 .44-.1.885-.382 1.249-.303.393-.733.539-1.154.539-.334 0-.687-.07-.991-.282a2.9 2.9 0 0 1-.638-.657l-.003-.003L3.34 6.737v11.399c0 .464-.112.936-.434 1.307l-.012.013-.012.013c-.334.35-.769.48-1.2.48-.435 0-.883-.122-1.225-.48zm2.167-15.01 10.083 14.1q.245.333.465.486.22.154.587.154.392 0 .588-.256.22-.282.22-.769V1.788q0-.487-.245-.744-.22-.28-.66-.281-.465 0-.71.281-.245.256-.245.744V15.47L2.613 1.403q-.245-.358-.44-.487Q2 .763 1.608.763a.8.8 0 0 0-.636.281q-.245.282-.245.795v16.297q0 .512.245.794.245.255.71.256.44 0 .685-.256.245-.282.245-.794zm14.84 15.475-.014.001c-.457.025-.927-.1-1.275-.49a1.75 1.75 0 0 1-.47-1.22c0-.382.123-.73.341-1.022.28-.401.699-.558 1.1-.584l.752-.051c.685-.057 1.122-.292 1.408-.633.297-.37.485-.92.485-1.732V1.838c0-.464.105-.963.458-1.334C20.59.137 21.05 0 21.512 0c.447 0 .908.129 1.25.505.365.365.482.862.482 1.334v12.376c0 1.062-.178 2.024-.56 2.865l-.002.003-.001.003a4.44 4.44 0 0 1-1.757 1.965c-.753.464-1.648.718-2.657.793zm.755-.837q1.395-.104 2.35-.692a3.7 3.7 0 0 0 1.468-1.64q.49-1.077.49-2.537V1.84q0-.538-.27-.795-.244-.28-.734-.281-.49 0-.759.281-.244.256-.244.795v12.35q0 1.41-.661 2.23-.66.794-1.909.897l-.759.05q-.39.027-.563.283a.9.9 0 0 0-.195.563q0 .41.269.692.245.282.71.256zm9.918.613h-.002a6.7 6.7 0 0 1-2.298-1.088l-.001-.001-.002-.001a1.75 1.75 0 0 1-.59-.725l-.006-.014-.005-.013a1.84 1.84 0 0 1-.121-.854l.003-.033.007-.033c.054-.285.17-.553.357-.782l.018-.022.02-.02c.212-.223.481-.377.795-.42.354-.066.689.024.975.174l.03.015.026.017c.587.378 1.132.635 1.638.783q.819.207 1.603.206c.86 0 1.382-.17 1.677-.393.283-.214.409-.47.409-.843 0-.285-.082-.435-.206-.544l-.008-.007-.008-.008c-.175-.163-.522-.348-1.14-.49l-2.222-.511c-1.109-.24-2.03-.674-2.672-1.368l-.004-.005-.004-.005c-.637-.71-.931-1.617-.931-2.648 0-.905.223-1.724.7-2.418v-.002l.002-.002c.48-.691 1.14-1.208 1.947-1.561.808-.354 1.723-.52 2.729-.52q1.172-.002 2.235.337c.733.213 1.4.56 1.993 1.043.254.19.46.45.567.782.12.31.13.634.046.945a1.6 1.6 0 0 1-.41.757l-.02.02-.021.02c-.238.213-.52.327-.818.359-.368.038-.701-.086-.977-.27l-.007-.004-.006-.004a4.6 4.6 0 0 0-1.292-.646l-.01-.003-.01-.003a4 4 0 0 0-1.27-.22c-.835 0-1.346.175-1.64.409a1.03 1.03 0 0 0-.422.879c0 .298.085.49.227.639.155.161.457.338 1.006.46l2.228.486h.002c1.128.255 2.063.682 2.72 1.343.71.68 1.037 1.598 1.037 2.658 0 1.369-.542 2.494-1.594 3.304-1.026.79-2.343 1.148-3.882 1.148a9.8 9.8 0 0 1-2.397-.303zm6.338-6.25q-.783-.794-2.374-1.154l-2.227-.486q-.93-.206-1.37-.667-.441-.46-.441-1.178 0-.922.71-1.487.71-.563 2.08-.563.735 0 1.493.256a5.3 5.3 0 0 1 1.493.743q.269.179.514.154a.7.7 0 0 0 .416-.18.84.84 0 0 0 .22-.41.7.7 0 0 0-.025-.486.8.8 0 0 0-.318-.436 4.9 4.9 0 0 0-1.762-.923 6.6 6.6 0 0 0-2.031-.307q-1.395 0-2.447.461t-1.64 1.307q-.563.82-.563 1.973 0 1.306.734 2.127.76.82 2.3 1.153l2.228.512q1.003.23 1.468.667.465.41.465 1.127 0 .923-.71 1.46-.71.54-2.104.539a7.2 7.2 0 0 1-1.787-.23q-.881-.258-1.835-.872-.294-.154-.539-.103a.63.63 0 0 0-.391.205.96.96 0 0 0-.196.436q-.025.23.073.487.099.23.343.41a6 6 0 0 0 2.056.974q1.125.28 2.227.281 2.153 0 3.45-.999 1.298-1 1.298-2.69 0-1.334-.808-2.102" clip-rule="evenodd"/></symbol>
<symbol id="phone" xmlns="http://www.w3.org/2000/svg" fill="none" viewBox="0 0 20 20"><path d="M12.15 4.44a4.31 4.31 0 0 1 3.403 3.398M12.15 1a7.76 7.76 0 0 1 4.624 2.216A7.74 7.74 0 0 1 19 7.83m-.862 6.864v2.58a1.72 1.72 0 0 1-1.171 1.636 1.7 1.7 0 0 1-.707.084 17.1 17.1 0 0 1-7.437-2.64 16.8 16.8 0 0 1-5.17-5.161 17 17 0 0 1-2.646-7.457 1.72 1.72 0 0 1 1.02-1.728c.219-.097.456-.147.695-.147h2.585a1.725 1.725 0 0 1 1.724 1.48c.109.825.311 1.636.603 2.416a1.72 1.72 0 0 1-.388 1.815L6.152 8.663a13.8 13.8 0 0 0 5.17 5.16l1.094-1.091a1.72 1.72 0 0 1 1.819-.387 11 11 0 0 0 2.421.602 1.724 1.724 0 0 1 1.482 1.746"/></symbol>
<symbol id="postman" xmlns="http://www.w3.org/2000/svg" width="37" height="35" fill="none"><path stroke="#030303" stroke-width=".8" d="M13.955 18.734 12.25 17.19l-2.5 2.507zM13.65 19.89l-1.209 1.24 2.42-.194zM17.434 23.429l-1.566-1.516-4.068.717-8.108 8.182 2.721 2.617-.467-2.37zM5.343 34.265l-2.31-2.232L1 33.989zM19.845 21.395l10.06-8.926c-1.205 3.858-4.188 6.356-8.466 10.661zM26.656 9.338l-9.812 9.753 1.209 1.102 10.279-9.036c1.017-1.819-.33-2.54-1.677-1.819ZM20.453 9.173l-7.338 6.832 1.923 1.79L25.895 7.63c-1.776-1.21-3.069-.344-5.442 1.543ZM29.881 5.413s3.436-3.279 3.655-3.802c.22-.523-3.447-1.213-5.112.358-.98 1.11-1.313 1.844-1.126 3.554.384 1.873 2.05 3.615 5.387 2.838z"/><path stroke="#030303" stroke-width=".8" d="M32 5.248 35.102 2c1.973 2.058.21 5.782-.68 5.998-.27.065-1.651-1.716-2.422-2.75Z"/></symbol>
<symbol id="react" xmlns="http://www.w3.org/2000/svg" width="28" height="28" fill="none"><path fill="#030303" fill-rule="evenodd" d="M12.201 23.276c2.068-1.485 4.33-3.926 6.263-6.982s3.129-6.09 3.525-8.503c.198-1.21.189-2.223.001-2.993-.187-.767-.532-1.222-.95-1.454-.419-.232-1.01-.297-1.817-.083-.81.215-1.763.694-2.799 1.438-2.068 1.484-4.33 3.925-6.262 6.982-1.932 3.056-3.13 6.09-3.525 8.503-.199 1.209-.19 2.223-.002 2.992.188.767.532 1.222.95 1.455.42.232 1.01.297 1.817.083.81-.215 1.764-.694 2.8-1.438m-5.026 2.003c2.675 1.487 8.04-2.364 11.98-8.6 3.943-6.237 4.97-12.498 2.295-13.984S13.412 5.06 9.47 11.296 4.5 23.793 7.175 25.28" clip-rule="evenodd"/><path fill="#030303" fill-rule="evenodd" d="M21.853 20.255c-.375-2.417-1.547-5.459-3.452-8.53s-4.147-5.53-6.202-7.03c-1.03-.75-1.979-1.237-2.787-1.458-.805-.22-1.397-.16-1.817.07-.42.229-.769.68-.963 1.446-.194.768-.212 1.782-.024 2.992.375 2.417 1.546 5.459 3.452 8.53s4.147 5.529 6.202 7.03c1.03.75 1.978 1.237 2.786 1.458.806.22 1.397.16 1.818-.07.42-.229.768-.68.962-1.446.195-.768.213-1.782.025-2.992m-.583 5.09c2.688-1.465 1.715-7.733-2.174-14C15.208 5.08 9.878 1.189 7.19 2.656c-2.687 1.465-1.714 7.733 2.174 14 3.888 6.265 9.219 10.157 11.906 8.69" clip-rule="evenodd"/><path fill="#030303" fill-rule="evenodd" d="M23.6 10.962C21.182 10.05 17.79 9.47 14 9.47s-7.183.58-9.6 1.492c-1.21.456-2.135.98-2.745 1.524-.609.542-.85 1.052-.85 1.508s.241.966.85 1.508c.61.544 1.535 1.068 2.746 1.525 2.416.91 5.81 1.491 9.599 1.491s7.183-.58 9.6-1.491c1.21-.457 2.135-.981 2.745-1.525.609-.542.85-1.052.85-1.508s-.241-.966-.85-1.508c-.61-.543-1.535-1.068-2.746-1.524m4.4 3.032c0-2.915-6.268-5.278-14-5.278S0 11.079 0 13.994s6.268 5.279 14 5.279 14-2.364 14-5.279" clip-rule="evenodd"/><path fill="#030303" fill-rule="evenodd" d="M14.28 15.463c.876 0 1.586-.666 1.586-1.488s-.71-1.487-1.586-1.487-1.587.665-1.587 1.487.71 1.488 1.587 1.488m0 .754c1.32 0 2.391-1.004 2.391-2.242s-1.07-2.242-2.391-2.242-2.391 1.004-2.391 2.242 1.07 2.242 2.39 2.242" clip-rule="evenodd"/></symbol>
<symbol id="telegram" xmlns="http://www.w3.org/2000/svg" fill="none" viewBox="0 0 29 22"><path d="M26.06.77 1.806 9.127c-1.23.423-1.21 1.065.045 1.425L7.3 11.96l2.864 7.392c.435 1.122 1.583 1.381 2.552.576l3.643-3.028 5.12 3.722c1.041.728 2.106.371 2.368-.794l3.973-17.71C28.082.951 27.29.345 26.06.77"/><path d="m7.373 11.926 14.595-6.73-9.36 8.977-1.656 6.055M12.652 14.205l8.783 6.384"/></symbol>
</svg>